<svg xmlns="http://www.w3.org/2000/svg" viewBox="0 0 400 300" role="img" aria-label="Hand-drawn trail hiking shoes illustration">
  <rect width="400" height="300" rx="24" fill="#f6f6f3"/>
  <ellipse cx="200" cy="248" rx="120" ry="14" fill="#eceee8"/>
  <g stroke="#16191f" stroke-width="5" stroke-linecap="round" stroke-linejoin="round">
    <path d="M92 208 C100 170 130 148 168 150 L196 152 C210 132 232 122 258 128 L312 144 C322 147 326 156 322 166 L308 202 C304 212 296 218 284 218 L116 218 C102 218 90 218 92 208 Z" fill="#3d352d"/>
    <path d="M96 196 L308 196" fill="none" stroke="#4a4036" stroke-width="2"/>
    <path d="M100 206 L304 206" stroke="#8b7355" fill="none" stroke-width="2"/>
    <path d="M196 152 L214 184 M216 144 L236 178 M238 138 L258 172" fill="none" stroke="#5d4e37"/>
    <circle cx="212" cy="188" r="3.5" fill="#e8c547" stroke="none"/>
    <circle cx="232" cy="182" r="3.5" fill="#e8c547" stroke="none"/>
    <circle cx="252" cy="176" r="3.5" fill="#e8c547" stroke="none"/>
    <path d="M290 160 Q305 150 315 160 Q325 170 315 180 Q305 190 290 180 Q275 180 275 160 Z" fill="#8b7355"/>
    <path d="M130 168 C142 162 156 162 166 170" fill="none"/>
  </g>
  <circle cx="78" cy="70" r="6" fill="#1d4ed8" opacity="0.25"/>
  <circle cx="326" cy="82" r="9" fill="none" stroke="#1d4ed8" stroke-width="4" opacity="0.5"/>
</svg>